<mxfile host="app.diagrams.net" modified="2024-09-12T09:30:56.501Z" agent="Mozilla/5.0 (Windows NT 10.0; Win64; x64) AppleWebKit/537.36 (KHTML, like Gecko) Chrome/128.0.0.0 Safari/537.36 Edg/128.0.0.0" version="24.4.9" etag="XwshB6glz6jDZatAfw1i" type="github">
  <diagram name="第 1 页" id="30kG0yLj1IpBGIQbM7rz">
    <mxGraphModel>
      <root>
        <mxCell id="0" />
        <mxCell id="1" parent="0" />
      </root>
    </mxGraphModel>
  </diagram>
</mxfile>
